<?xml version="1.0" encoding="utf-8"?>
<!-- Generator: Adobe Illustrator 23.0.6, SVG Export Plug-In . SVG Version: 6.00 Build 0)  -->
<svg version="1.1" id="图层_1" xmlns="http://www.w3.org/2000/svg" xmlns:xlink="http://www.w3.org/1999/xlink" x="0px" y="0px"
	 viewBox="0 0 24 24" style="enable-background:new 0 0 24 24;" xml:space="preserve">
<style type="text/css">
	.st0{fill-rule:evenodd;clip-rule:evenodd;fill:#FFFFFF;}
</style>
<path class="st0" d="M9,3h6V1.2c0-0.1,0-0.1-0.1-0.2S14.8,1,14.8,1H9.2C9.2,1,9.1,1,9.1,1.1S9,1.2,9,1.2V3z M20,4H4v18
	c0,0.6,0.4,1,1,1h14c0.6,0,1-0.4,1-1V4z M10,7.5C10,7.2,9.8,7,9.5,7S9,7.2,9,7.5v12C9,19.8,9.2,20,9.5,20s0.5-0.2,0.5-0.5V7.5z
	 M15,7.5C15,7.2,14.8,7,14.5,7S14,7.2,14,7.5v12c0,0.3,0.2,0.5,0.5,0.5s0.5-0.2,0.5-0.5V7.5z M23,3v1h-2v18c0,1.1-0.9,2-2,2H5
	c-1.1,0-2-0.9-2-2V4H1V3h7V1c0-0.6,0.4-1,1-1h6c0.6,0,1,0.4,1,1v2H23z"/>
</svg>
